<svg xmlns="http://www.w3.org/2000/svg" xmlns:xlink="http://www.w3.org/1999/xlink" width="40" height="40" viewBox="0 0 40 40"><defs><clipPath id="a"><rect width="40" height="40" fill="none"/></clipPath></defs><g transform="translate(0 0)"><g transform="translate(0 0)" clip-path="url(#a)"><path d="M30.611,40H9.389A9.389,9.389,0,0,1,0,30.611V9.389A9.389,9.389,0,0,1,9.389,0H30.611A9.389,9.389,0,0,1,40,9.389V30.611A9.389,9.389,0,0,1,30.611,40" transform="translate(0 0.002)" fill="#231f20"/><path d="M4.92,8.623h7.929L8,19.29h7.3s4-5.524,1.224-11.215C13.4,2.127,8.168,2.127,8.168,2.127H1.377Z" transform="translate(6.015 9.293)" fill="#fff"/><path d="M15.064,8.623l-3.753-6.5h-7.3S6,6.513,7.473,7.356A6.866,6.866,0,0,0,11.1,8.623Z" transform="translate(17.544 9.293)" fill="#fff"/></g></g></svg>